<?xml version="1.0" encoding="UTF-8"?>
<svg id="_Слой_2" data-name="Слой 2" xmlns="http://www.w3.org/2000/svg" viewBox="0 0 309.92 150.23">
  <defs>
    <style>
      .cls-1 {
        fill: #fff;
      }
    </style>
  </defs>
  <g id="_Слой_1-2" data-name="Слой 1">
    <g>
      <path class="cls-1" d="M82.63,44.67c-28.33,36.95-11.33,102.92-61.82,105.45-.05.02-.1.06-.15.08,25.09.62,35.22-13.25,39.63-31.17,4.41-17.92,8.29-55.65,22.34-74.36Z"/>
      <g>
        <path class="cls-1" d="M69.89,132.59c-2.63,0-4.12,1.67-4.12,5.13s1.62,5.13,4.12,5.13c2.74,0,4.12-1.65,4.12-5.13s-1.18-5.13-4.12-5.13Z"/>
        <path class="cls-1" d="M123.03,122.31V43.17h23.03l17.82-22.08h-54.79l-3.66,2.61-.48.34c-.27.19-.52.38-.79.57-.39.28-.79.56-1.17.84-1.32.97-2.6,1.97-3.86,2.99-.37.3-.75.6-1.11.9-3.62,2.98-6.97,6.12-10.05,9.4-.32.34-.62.68-.93,1.02-1.03,1.12-2.03,2.26-2.99,3.41h14.7v79.14h-36.59c-.23.73-.44,1.49-.69,2.19-.03.09-.07.17-.1.26-.35.97-.72,1.91-1.1,2.84-.65,1.54-1.36,3-2.13,4.41-1.11,2.01-2.37,3.88-3.81,5.59-.94,1.11-1.96,2.14-3.07,3.11-.96.84-1.96,1.65-3.05,2.38-.95.65-1.96,1.25-3.03,1.8-1.06.55-2.18,1.05-3.37,1.51-2.28.89-4.82,1.59-7.62,2.14-.69.13-1.4.26-2.13.37-.13.02-.27.04-.4.06-2.21.33-4.56.55-7.1.67-.85.04-1.71.07-2.59.09l-.34.17h266.08l22.24-27.58H123.03ZM69.89,144.94c-4.36,0-6.58-2.55-6.58-7.22s2.33-7.22,6.58-7.22,6.58,2.52,6.58,7.22-2.39,7.22-6.58,7.22ZM92.01,144.72h-2.3v-2h-.06c-1.04,1.51-2.69,2.22-4.5,2.22-3.62,0-5.24-1.76-5.24-5.9v-8.31h2.3v7.24c0,3.73.77,4.88,3.43,4.88,2.85,0,4.06-2.17,4.06-5.65v-6.47h2.3v13.99ZM101.53,144.94c-2.85,0-4.09-1.34-4.09-4.06v-8.07h-2.77v-2.09h2.77v-2.96l2.3-.82v3.79h3.87v2.09h-3.87v7.54c0,1.7.49,2.5,2.28,2.5.49,0,1.01-.08,1.48-.3l.36,1.84c-.71.36-1.65.55-2.33.55ZM118.79,144.72h-2.3v-7.24c0-3.68-.77-4.88-3.43-4.88-2.85,0-4.06,2.17-4.06,5.65v6.47h-2.3v-20.58h2.3v8.59h.06c1.04-1.51,2.69-2.22,4.5-2.22,3.7,0,5.24,1.76,5.24,5.9v8.31Z"/>
      </g>
      <g>
        <path class="cls-1" d="M165.52,111.12h-29.1v-52.09h29.1v6.25h-22.4v15.78h20.46v6.1h-20.46v17.71h22.4v6.25Z"/>
        <path class="cls-1" d="M216.8,111.12h-8.63l-24.41-43.39v43.39h-6.7v-52.09h9.38l23.66,42.27v-42.27h6.7v52.09Z"/>
        <path class="cls-1" d="M259.29,111.12h-29.1v-52.09h29.1v6.25h-22.4v15.78h20.46v6.1h-20.46v17.71h22.4v6.25Z"/>
        <path class="cls-1" d="M300.37,111.12l-13.54-22.1-13.62,22.1h-8.19l17.64-27.09-15.93-25h8.19l12.06,20.46,12.58-20.46h7.74l-16,24.85,17.71,27.24h-8.63Z"/>
      </g>
      <path class="cls-1" d="M88.97,35.56c5.22-5.54,11.34-10.75,17.67-15.21-32.72-1.99-56.22,24.32-62.15,54.58C24.59,58.95,10.88,36.23,6.42,10.9c-17.91,33.7,4.42,67.65,33.06,86.09-4.69,18.63-5.87,43.82-25.36,52.9,60.96,1.51,33.67-79.4,74.86-114.33Z"/>
      <g>
        <path class="cls-1" d="M30.06,90.15c-.7-.6-1.4-1.19-2.11-1.76.7.6,1.4,1.18,2.11,1.76Z"/>
        <path class="cls-1" d="M33.8,122.24c1.1-3.42,1.91-6.83,2.41-10.07-.71,3.37-1.49,6.76-2.41,10.07Z"/>
        <path class="cls-1" d="M.86,45.24c-.02-.13-.05-.25-.07-.38.02.13.04.25.07.38Z"/>
        <path class="cls-1" d="M44.49,74.93C24.59,58.95,10.88,36.23,6.42,10.9.45,22.13-1.03,33.38.68,44.07c4.48,11.32,15.52,25.49,24.47,31.87,5.21,5.28,12.62,7.25,19.48,6,6.86-1.26,13.14-5.52,18.01-11.21,3.36-3.92,7.82-8.19,10.06-13.07-1.62,3.08-2.99,6.71-4.21,10.67,4.19-12.46,10.2-24.05,20.48-32.77,5.22-5.54,11.34-10.75,17.67-15.21-32.72-1.99-56.22,24.32-62.15,54.58Z"/>
      </g>
      <path class="cls-1" d="M44.63,81.94c-6.86,1.26-14.27-.72-19.48-6-8.97-6.39-20.04-20.6-24.5-31.93,2.41,18.3,16.29,33.34,17.37,34.97,4.46,6.75,12.09,9.46,17.02,16.53,5.74,11.08-2.82,44.4-20.93,54.38,45.62,5.36,44.53-52.9,55.21-84.2.84-2.5,6.67-17.13,14.1-24.72-5.69,5.01-17.43,25.84-20.79,29.77-4.87,5.69-11.16,9.95-18.01,11.21Z"/>
      <path class="cls-1" d="M51.64,34.54c-.54-.49-.66-1.34-.23-1.87.45-.52,1.2-.7,1.85-.29.31.2.51.52.58.87.07.36-.02.74-.27,1.05-.5.64-1.36.75-1.93.24ZM49.46,38.17c.61-.4.66-1.24.23-1.74-.45-.52-1.15-.56-1.68-.23-.51.36-.63,1.11-.28,1.69.35.57,1.13.7,1.72.28ZM44.72,40.61c.61-.24.88-.92.63-1.46-.25-.56-.87-.81-1.4-.6-.54.17-.84.79-.66,1.37s.81.9,1.43.69ZM39.76,41.63c.58-.06.98-.56.89-1.1-.09-.54-.57-.94-1.08-.88-.51.07-.91.53-.89,1.07.02.56.51.99,1.09.91ZM34.94,41.4c.51.11.98-.3,1.03-.78.05-.51-.29-.9-.75-1-.46-.09-.92.24-1.02.72-.11.48.23.96.74,1.05ZM30.54,40.05c.44.18.91-.03,1.07-.45.15-.42-.04-.89-.44-1.05-.4-.15-.86.03-1.06.42-.2.41-.01.91.43,1.07ZM26.73,37.82c.34.26.82.15,1.04-.18.23-.34.13-.77-.18-1-.3-.24-.75-.18-1,.14-.25.32-.19.78.14,1.04ZM23.65,34.9c.25.29.66.32.93.07.26-.25.29-.67.07-.93-.23-.26-.64-.29-.93-.07-.28.23-.31.65-.07.93ZM21.36,31.51c.17.3.53.4.82.23.28-.17.39-.53.23-.8-.16-.28-.52-.38-.82-.23-.29.15-.4.51-.23.8ZM19.9,27.84c.09.29.4.45.68.36.28-.09.44-.39.35-.67-.09-.27-.39-.43-.68-.36-.29.08-.44.37-.35.67ZM56.17,29.32c.29-.67-.12-1.4-.75-1.59-.66-.19-1.28.16-1.53.72-.23.58.08,1.28.69,1.57.61.29,1.33-.03,1.6-.7ZM57.23,24.09c.07-.65-.41-1.18-1.03-1.19-.6,0-1.11.44-1.17,1-.05.56.4,1.1.99,1.19.62.1,1.15-.35,1.21-1ZM56.89,19.04c-.12-.57-.65-.93-1.19-.8-.53.13-.88.65-.77,1.15.12.5.56.87,1.12.81.53-.06.97-.59.84-1.16ZM55.36,14.47c-.2-.49-.75-.68-1.2-.44-.43.23-.61.75-.43,1.18.19.43.72.63,1.18.45.46-.18.67-.71.46-1.19ZM52.89,10.58c-.31-.36-.83-.41-1.16-.11-.34.3-.38.8-.11,1.12.27.33.74.41,1.11.15.36-.25.45-.79.16-1.16ZM49.7,7.53c-.33-.26-.79-.21-1.03.12s-.18.79.12,1.03c.3.24.76.18,1.03-.12.26-.3.21-.76-.12-1.03ZM46.07,5.34c-.33-.19-.74,0-.88.32-.15.34.01.7.32.87.31.16.7.03.87-.29.17-.32.04-.72-.3-.9ZM42.19,4.04c-.34-.06-.66.15-.72.47-.06.32.14.63.45.69.31.07.62-.1.71-.43.09-.31-.11-.66-.44-.73ZM38.26,3.62c-.31,0-.55.25-.55.54,0,.3.24.54.53.53.29,0,.53-.24.55-.53.02-.3-.22-.55-.53-.55ZM52.89,41.47c.2-.15.36-.33.47-.52.11-.21.17-.43.19-.65.04-.44-.1-.88-.41-1.22-.31-.34-.73-.53-1.13-.56-.2-.02-.41,0-.6.06-.2.05-.4.13-.57.26-.68.5-.81,1.55-.32,2.3.51.79,1.57.93,2.37.33ZM46.77,44.76c.86-.28,1.19-1.27.83-2-.37-.77-1.2-1.04-1.93-.81-.72.26-1.11,1.12-.87,1.92.24.8,1.12,1.2,1.96.89ZM40.34,46.16c.8-.09,1.34-.81,1.22-1.55-.13-.75-.78-1.24-1.47-1.16-.7.03-1.25.67-1.23,1.42s.68,1.33,1.49,1.28ZM34.1,45.79c.71.11,1.35-.35,1.41-1.03s-.38-1.3-1.01-1.4c-.32-.05-.63.05-.88.23-.25.16-.45.43-.52.76-.07.33,0,.66.17.94.18.26.48.44.83.5ZM28.44,43.98c.58.3,1.27-.04,1.47-.6.22-.59-.06-1.16-.58-1.43-.52-.25-1.17-.01-1.45.53-.28.54-.04,1.21.55,1.49ZM23.62,40.96c.46.35,1.1.26,1.41-.19s.23-1.08-.19-1.39c-.43-.3-1.04-.24-1.39.17-.37.43-.31,1.07.17,1.41ZM19.78,37.09c.32.41.93.44,1.29.11.38-.34.4-.87.11-1.25-.28-.38-.84-.45-1.24-.15-.4.29-.47.87-.16,1.29ZM17.05,32.63c.2.42.69.59,1.08.37.39-.22.56-.7.38-1.09-.19-.39-.67-.56-1.08-.37s-.58.67-.38,1.09ZM15.41,27.86c.1.41.51.65.9.54.39-.11.63-.51.53-.89-.1-.38-.5-.62-.9-.54-.4.08-.64.48-.53.89ZM14.83,23.02c.02.38.33.67.7.64.37-.02.65-.33.63-.68-.02-.35-.33-.64-.7-.64-.37,0-.65.3-.63.68ZM57.59,36.36c.56-.7.31-1.71-.39-2.13-.73-.44-1.57-.22-2.06.37-.46.61-.31,1.55.32,2.09.64.54,1.59.39,2.13-.33ZM60.52,30.47c.14-.37.12-.76-.03-1.08-.16-.32-.45-.57-.81-.67-.36-.11-.72-.05-1.02.1-.32.15-.57.4-.69.73-.24.65.13,1.44.8,1.73.7.31,1.49-.05,1.76-.81ZM61.73,24.35c.04-.72-.48-1.31-1.16-1.33-.68-.01-1.25.49-1.28,1.12-.02.64.39,1.22,1.08,1.32.65.1,1.34-.39,1.37-1.11ZM61.36,18.41c-.05-.32-.22-.58-.44-.75-.24-.16-.55-.22-.85-.16-.3.07-.54.24-.69.47-.17.23-.25.51-.21.8.09.57.65.98,1.26.91.61-.07,1.02-.64.93-1.28ZM59.67,12.98c-.25-.52-.86-.75-1.35-.5-.49.25-.71.83-.48,1.3.21.48.75.73,1.28.53.51-.19.79-.8.56-1.33ZM56.84,8.33c-.31-.42-.88-.5-1.26-.18s-.47.88-.18,1.26c.28.38.85.46,1.26.18.41-.28.5-.84.18-1.26ZM53.2,4.56c-.34-.33-.89-.24-1.16.1-.28.36-.21.83.1,1.13.32.29.82.26,1.13-.07s.27-.85-.07-1.17ZM49,1.78c-.38-.18-.83-.04-1.01.33s-.04.8.32.97c.35.18.77.08.98-.28.2-.34.09-.82-.29-1.02ZM44.45.02c-.37-.09-.74.12-.83.47-.09.36.12.71.46.8.34.08.71-.12.82-.46.12-.36-.09-.73-.45-.82Z"/>
      <g>
        <path class="cls-1" d="M41.11,22.9c0,1.56-1.26,2.82-2.82,2.81-1.55,0-2.81-1.26-2.81-2.82,0-1.56,1.26-2.82,2.82-2.81,1.55,0,2.81,1.26,2.81,2.82Z"/>
        <g>
          <path class="cls-1" d="M38.32,9.49c-2.03,0-3.96.45-5.69,1.26,2.3-.24,4.68.75,6.44,2.53,0,0,0,0,0,0,.88.87,1.65,2,2.31,3.35,3.74.67,6.27-1.19,7.27-2.28,0,0,0,0,0,0-2.46-2.97-6.18-4.86-10.34-4.86Z"/>
          <path class="cls-1" d="M30.24,12.19c-1.84,1.39-3.31,3.24-4.24,5.38,1.12.27,4.46,1.36,5.99,5.49.46-.15,1.45-.73,2.14-2.96.85-2.73,2.39-5.37,4.38-6.54-2.2-2.13-5.55-3.07-8.28-1.37Z"/>
        </g>
        <g>
          <path class="cls-1" d="M49.95,29.6c1.02-1.76,1.59-3.65,1.75-5.54-.94,2.1-2.99,3.67-5.42,4.31,0,0,0,0,0,0-1.19.33-2.56.43-4.06.32-2.45,2.9-2.11,6.02-1.65,7.43,0,0,0,0,0,0,3.8-.65,7.3-2.92,9.38-6.51Z"/>
          <path class="cls-1" d="M51.65,21.26c-.28-2.29-1.15-4.48-2.55-6.36-.8.83-3.41,3.17-7.76,2.43-.1.47-.1,1.62,1.5,3.33,1.95,2.1,3.47,4.75,3.48,7.06,2.95-.84,5.43-3.26,5.33-6.47Z"/>
        </g>
        <g>
          <path class="cls-1" d="M26.69,29.6c1.02,1.76,2.37,3.2,3.93,4.29-1.35-1.87-1.69-4.42-1.03-6.84,0,0,0,0,0,0,.31-1.2.91-2.43,1.76-3.67-1.29-3.56-4.17-4.83-5.62-5.15,0,0,0,0,0,0-1.34,3.61-1.12,7.77.96,11.37Z"/>
          <path class="cls-1" d="M33.08,35.24c2.13.9,4.47,1.24,6.79.98-.32-1.1-1.05-4.53,1.77-7.92-.36-.32-1.36-.89-3.64-.37-2.8.64-5.85.62-7.87-.52-.75,2.97.11,6.33,2.95,7.84Z"/>
        </g>
      </g>
    </g>
  </g>
</svg>